<?xml version="1.0" standalone="no"?>
<!DOCTYPE svg PUBLIC "-//W3C//DTD SVG 20010904//EN"
 "http://www.w3.org/TR/2001/REC-SVG-20010904/DTD/svg10.dtd">
<svg version="1.0" xmlns="http://www.w3.org/2000/svg"
 width="514.000000pt" height="514.000000pt" viewBox="0 0 514.000000 514.000000"
 preserveAspectRatio="xMidYMid meet">
<metadata>
Created by potrace 1.14, written by Peter Selinger 2001-2017
</metadata>
<g transform="translate(0.000000,514.000000) scale(0.100000,-0.100000)"
fill="#000000" stroke="none">
<path d="M476 4715 c-59 -21 -88 -46 -115 -98 -29 -58 -30 -122 -2 -174 31
-57 41 -67 97 -90 95 -41 190 -10 247 80 26 40 30 133 7 177 -46 91 -146 135
-234 105z"/>
<path d="M1245 4720 c-64 -14 -112 -59 -148 -140 -25 -58 -28 -191 -5 -235 35
-67 90 -90 189 -81 88 8 129 26 179 83 77 88 73 226 -8 309 -50 50 -140 78
-207 64z"/>
<path d="M2557 4453 c-1 0 -36 -4 -77 -6 -403 -29 -778 -169 -1095 -410 -136
-103 -139 -110 -140 -327 -2 -152 -5 -182 -23 -228 -46 -118 -172 -237 -271
-257 -9 -2 -29 -8 -46 -15 -16 -6 -32 -11 -35 -11 -3 0 -20 -4 -38 -9 -44 -12
-95 -51 -120 -92 -21 -33 -58 -153 -68 -218 -3 -19 -9 -51 -14 -70 -5 -19 -12
-64 -16 -100 -3 -36 -9 -83 -13 -105 -12 -74 -1 -419 14 -445 2 -3 6 -34 10
-70 4 -36 11 -73 16 -82 6 -10 7 -18 4 -18 -3 0 -1 -8 4 -17 5 -10 12 -34 15
-53 3 -19 15 -62 26 -95 12 -33 23 -67 25 -76 8 -37 105 -243 151 -318 27 -45
54 -90 59 -99 60 -103 275 -344 390 -437 20 -16 43 -35 50 -42 41 -39 249
-167 355 -220 173 -85 401 -158 555 -178 22 -2 51 -7 65 -10 107 -22 371 -22
525 0 125 18 176 27 225 41 30 9 62 17 70 19 157 33 438 167 620 297 129 91
305 258 395 373 153 196 262 393 333 600 31 90 69 234 77 290 2 17 10 62 17
100 17 95 17 458 0 555 -8 41 -15 84 -17 95 -9 59 -50 206 -81 296 -32 91
-123 293 -156 343 -7 11 -29 45 -48 75 -99 157 -283 361 -430 477 -119 94
-147 114 -154 107 -3 -4 -6 -101 -6 -217 l0 -211 78 -80 c317 -324 483 -734
477 -1180 -2 -209 -27 -355 -92 -543 -23 -68 -80 -196 -103 -232 -5 -8 -25
-42 -44 -75 -30 -53 -54 -87 -146 -206 -30 -39 -170 -178 -210 -208 -19 -14
-41 -32 -49 -39 -7 -7 -39 -30 -70 -52 -202 -137 -444 -236 -651 -266 -19 -3
-44 -8 -54 -11 -11 -3 -43 -7 -72 -8 -29 -2 -56 -5 -61 -7 -21 -10 -267 2
-343 16 -14 3 -45 8 -69 11 -23 4 -55 11 -70 16 -14 6 -28 10 -31 9 -9 -2 -94
21 -112 31 -10 5 -26 9 -36 9 -10 0 -22 4 -28 8 -5 5 -30 16 -56 26 -26 9 -84
38 -130 63 -46 25 -93 51 -105 57 -13 6 -23 14 -23 19 0 4 -5 7 -10 7 -6 0
-16 4 -23 10 -7 5 -57 45 -112 88 -55 44 -127 108 -161 143 -68 73 -184 226
-211 279 -10 19 -21 37 -24 40 -24 19 -137 280 -154 355 -2 11 -13 54 -24 95
-11 41 -21 100 -23 130 -2 30 -7 58 -11 61 -10 7 -12 279 -3 319 11 48 48 140
57 140 5 0 9 5 9 12 0 17 69 76 123 104 26 13 47 21 47 18 0 -4 6 -2 13 4 6 5
57 22 112 37 273 74 399 134 515 245 35 34 110 134 110 147 0 6 7 16 15 23 8
7 12 16 9 21 -3 5 0 9 5 9 6 0 10 3 9 8 -1 4 4 20 11 36 6 16 28 79 47 140 84
263 107 323 149 386 61 92 115 135 211 168 99 34 187 39 402 23 17 -1 16
-1990 -1 -2038 -17 -46 -63 -92 -110 -113 -46 -20 -130 -20 -168 0 -58 32
-108 99 -114 153 -1 12 -3 25 -4 28 0 3 -94 6 -207 6 l-206 -1 5 -70 c10 -137
68 -257 177 -366 41 -41 89 -82 105 -90 17 -8 32 -18 35 -21 5 -6 103 -44 135
-53 69 -19 192 -24 269 -12 233 38 442 233 497 464 8 33 12 388 14 1210 l2
1164 -26 10 c-31 12 -38 14 -122 32 -86 20 -117 26 -159 32 -19 2 -46 6 -59 9
-43 8 -299 23 -304 18z m-914 -787 c124 -52 165 -227 74 -320 -46 -47 -118
-69 -177 -55 -25 6 -78 44 -98 70 -24 29 -42 92 -36 122 11 63 18 79 44 116
51 70 125 96 193 67z"/>
<path d="M625 4042 c-108 -24 -195 -186 -190 -353 7 -225 217 -368 434 -295
74 25 162 113 186 187 19 56 27 147 13 155 -5 3 -6 10 -3 15 9 14 -42 107 -83
151 -49 53 -117 101 -172 123 -43 17 -144 26 -185 17z"/>
</g>
</svg>
